<svg width="28" height="24" viewBox="0 0 28 24" fill="none" xmlns="http://www.w3.org/2000/svg">
<path d="M3 16.998C3.55228 16.998 4 16.5503 4 15.998C4 15.4458 3.55228 14.998 3 14.998C2.44772 14.998 2 15.4458 2 15.998C2 16.5503 2.44772 16.998 3 16.998Z" fill="#2C4355"/>
<path d="M3 19.998C3.55228 19.998 4 19.5503 4 18.998C4 18.4458 3.55228 17.998 3 17.998C2.44772 17.998 2 18.4458 2 18.998C2 19.5503 2.44772 19.998 3 19.998Z" fill="#2C4355"/>
<path d="M5.5 22H0.5C0.367392 22 0.240215 21.9473 0.146447 21.8536C0.0526785 21.7598 0 21.6326 0 21.5V13.5C0 13.3674 0.0526785 13.2402 0.146447 13.1464C0.240215 13.0527 0.367392 13 0.5 13H5.5C5.63261 13 5.75979 13.0527 5.85355 13.1464C5.94732 13.2402 6 13.3674 6 13.5V21.5C6 21.6326 5.94732 21.7598 5.85355 21.8536C5.75979 21.9473 5.63261 22 5.5 22ZM1 21H5V14H1V21Z" fill="#2C4355"/>
<path d="M25 16.998C25.5523 16.998 26 16.5503 26 15.998C26 15.4458 25.5523 14.998 25 14.998C24.4477 14.998 24 15.4458 24 15.998C24 16.5503 24.4477 16.998 25 16.998Z" fill="#2C4355"/>
<path d="M25 19.998C25.5523 19.998 26 19.5503 26 18.998C26 18.4458 25.5523 17.998 25 17.998C24.4477 17.998 24 18.4458 24 18.998C24 19.5503 24.4477 19.998 25 19.998Z" fill="#2C4355"/>
<path d="M27.5 22H22.5C22.3674 22 22.2402 21.9473 22.1464 21.8536C22.0527 21.7598 22 21.6326 22 21.5V13.5C22 13.3674 22.0527 13.2402 22.1464 13.1464C22.2402 13.0527 22.3674 13 22.5 13H27.5C27.6326 13 27.7598 13.0527 27.8536 13.1464C27.9473 13.2402 28 13.3674 28 13.5V21.5C28 21.6326 27.9473 21.7598 27.8536 21.8536C27.7598 21.9473 27.6326 22 27.5 22ZM23 21H27V14H23V21ZM20.5 22H7.5C7.36739 22 7.24021 21.9473 7.14645 21.8536C7.05268 21.7598 7 21.6326 7 21.5V13.5C7 13.3674 7.05268 13.2402 7.14645 13.1464C7.24021 13.0527 7.36739 13 7.5 13H20.5C20.6326 13 20.7598 13.0527 20.8536 13.1464C20.9473 13.2402 21 13.3674 21 13.5V21.5C21 21.6326 20.9473 21.7598 20.8536 21.8536C20.7598 21.9473 20.6326 22 20.5 22ZM8 21H20V14H8V21ZM18.5 24H9.5C9.36739 24 9.24021 23.9473 9.14645 23.8536C9.05268 23.7598 9 23.6326 9 23.5C9 23.3674 9.05268 23.2402 9.14645 23.1464C9.24021 23.0527 9.36739 23 9.5 23H18.5C18.6326 23 18.7598 23.0527 18.8536 23.1464C18.9473 23.2402 19 23.3674 19 23.5C19 23.6326 18.9473 23.7598 18.8536 23.8536C18.7598 23.9473 18.6326 24 18.5 24Z" fill="#2C4355"/>
<path d="M15.5 24H12.5C12.3674 24 12.2402 23.9473 12.1464 23.8536C12.0527 23.7598 12 23.6326 12 23.5V21.5C12 21.3674 12.0527 21.2402 12.1464 21.1464C12.2402 21.0527 12.3674 21 12.5 21H15.5C15.6326 21 15.7598 21.0527 15.8536 21.1464C15.9473 21.2402 16 21.3674 16 21.5V23.5C16 23.6326 15.9473 23.7598 15.8536 23.8536C15.7598 23.9473 15.6326 24 15.5 24ZM13 23H15V22H13V23ZM5.5 24H0.5C0.367392 24 0.240215 23.9473 0.146447 23.8536C0.0526785 23.7598 0 23.6326 0 23.5C0 23.3674 0.0526785 23.2402 0.146447 23.1464C0.240215 23.0527 0.367392 23 0.5 23H5.5C5.63261 23 5.75979 23.0527 5.85355 23.1464C5.94732 23.2402 6 23.3674 6 23.5C6 23.6326 5.94732 23.7598 5.85355 23.8536C5.75979 23.9473 5.63261 24 5.5 24Z" fill="#2C4355"/>
<path d="M3 24C2.86739 24 2.74021 23.9473 2.64645 23.8536C2.55268 23.7598 2.5 23.6326 2.5 23.5V21.5C2.5 21.3674 2.55268 21.2402 2.64645 21.1464C2.74021 21.0527 2.86739 21 3 21C3.13261 21 3.25979 21.0527 3.35355 21.1464C3.44732 21.2402 3.5 21.3674 3.5 21.5V23.5C3.5 23.6326 3.44732 23.7598 3.35355 23.8536C3.25979 23.9473 3.13261 24 3 24ZM27.5 24H22.5C22.3674 24 22.2402 23.9473 22.1464 23.8536C22.0527 23.7598 22 23.6326 22 23.5C22 23.3674 22.0527 23.2402 22.1464 23.1464C22.2402 23.0527 22.3674 23 22.5 23H27.5C27.6326 23 27.7598 23.0527 27.8536 23.1464C27.9473 23.2402 28 23.3674 28 23.5C28 23.6326 27.9473 23.7598 27.8536 23.8536C27.7598 23.9473 27.6326 24 27.5 24Z" fill="#2C4355"/>
<path d="M25 24C24.8674 24 24.7402 23.9473 24.6464 23.8536C24.5527 23.7598 24.5 23.6326 24.5 23.5V21.5C24.5 21.3674 24.5527 21.2402 24.6464 21.1464C24.7402 21.0527 24.8674 21 25 21C25.1326 21 25.2598 21.0527 25.3536 21.1464C25.4473 21.2402 25.5 21.3674 25.5 21.5V23.5C25.5 23.6326 25.4473 23.7598 25.3536 23.8536C25.2598 23.9473 25.1326 24 25 24Z" fill="#2C4355"/>
<path d="M12.5 3H15.5C15.6326 3 15.7598 2.94732 15.8536 2.85355C15.9473 2.75979 16 2.63261 16 2.5C16 2.36739 15.9473 2.24021 15.8536 2.14645C15.7598 2.05268 15.6326 2 15.5 2H12.5C12.3674 2 12.2402 2.05268 12.1464 2.14645C12.0527 2.24021 12 2.36739 12 2.5C12 2.63261 12.0527 2.75979 12.1464 2.85355C12.2402 2.94732 12.3674 3 12.5 3Z" fill="#F15743"/>
<path d="M22.5 0H5.5C4.673 0 4 0.673 4 1.5V6.5C4 7.327 4.673 8 5.5 8H22.5C23.327 8 24 7.327 24 6.5V1.5C24 0.673 23.327 0 22.5 0ZM5 1.5C5 1.225 5.225 1 5.5 1H22.5C22.775 1 23 1.225 23 1.5V4.5C23 4.775 22.775 5 22.5 5H5.5C5.36747 4.99974 5.24045 4.94697 5.14674 4.85326C5.05303 4.75955 5.00026 4.63253 5 4.5V1.5ZM22.5 7H5.5C5.36747 6.99974 5.24045 6.94697 5.14674 6.85326C5.05303 6.75955 5.00026 6.63253 5 6.5V5.908C5.157 5.964 5.324 6 5.5 6H22.5C22.676 6 22.843 5.964 23 5.908V6.5C23 6.775 22.775 7 22.5 7ZM7.5 9C7.36739 9 7.24021 9.05268 7.14645 9.14645C7.05268 9.24021 7 9.36739 7 9.5V10.167C6.99974 10.3878 6.91189 10.5996 6.75573 10.7557C6.59957 10.9119 6.38784 10.9997 6.167 11C6.03439 11 5.90721 11.0527 5.81345 11.1464C5.71968 11.2402 5.667 11.3674 5.667 11.5C5.667 11.6326 5.71968 11.7598 5.81345 11.8536C5.90721 11.9473 6.03439 12 6.167 12C6.65298 11.9995 7.1189 11.8062 7.46254 11.4625C7.80618 11.1189 7.99947 10.653 8 10.167V9.5C8 9.36739 7.94732 9.24021 7.85355 9.14645C7.75979 9.05268 7.63261 9 7.5 9ZM10.5 9C10.3674 9 10.2402 9.05268 10.1464 9.14645C10.0527 9.24021 10 9.36739 10 9.5V10.167C9.99974 10.3878 9.91189 10.5996 9.75573 10.7557C9.59957 10.9119 9.38784 10.9997 9.167 11C9.03439 11 8.90722 11.0527 8.81345 11.1464C8.71968 11.2402 8.667 11.3674 8.667 11.5C8.667 11.6326 8.71968 11.7598 8.81345 11.8536C8.90722 11.9473 9.03439 12 9.167 12C9.65298 11.9995 10.1189 11.8062 10.4625 11.4625C10.8062 11.1189 10.9995 10.653 11 10.167V9.5C11 9.36739 10.9473 9.24021 10.8536 9.14645C10.7598 9.05268 10.6326 9 10.5 9ZM21.835 11C21.6142 10.9997 21.4024 10.9119 21.2463 10.7557C21.0901 10.5996 21.0023 10.3878 21.002 10.167V9.5C21.002 9.36739 20.9493 9.24021 20.8556 9.14645C20.7618 9.05268 20.6346 9 20.502 9C20.3694 9 20.2422 9.05268 20.1484 9.14645C20.0547 9.24021 20.002 9.36739 20.002 9.5V10.167C20.002 11.178 20.824 12 21.835 12C21.9676 12 22.0948 11.9473 22.1886 11.8536C22.2823 11.7598 22.335 11.6326 22.335 11.5C22.335 11.3674 22.2823 11.2402 22.1886 11.1464C22.0948 11.0527 21.9676 11 21.835 11ZM18.835 11C18.6142 10.9997 18.4024 10.9119 18.2463 10.7557C18.0901 10.5996 18.0023 10.3878 18.002 10.167V9.5C18.002 9.36739 17.9493 9.24021 17.8556 9.14645C17.7618 9.05268 17.6346 9 17.502 9C17.3694 9 17.2422 9.05268 17.1484 9.14645C17.0547 9.24021 17.002 9.36739 17.002 9.5V10.167C17.002 11.178 17.824 12 18.835 12C18.9676 12 19.0948 11.9473 19.1886 11.8536C19.2823 11.7598 19.335 11.6326 19.335 11.5C19.335 11.3674 19.2823 11.2402 19.1886 11.1464C19.0948 11.0527 18.9676 11 18.835 11Z" fill="#F15743"/>
</svg>
