<svg width="14" height="23" viewBox="0 0 14 23" fill="none" xmlns="http://www.w3.org/2000/svg">
<path d="M2.78057 12.2856H4.81296L2.34887 2.42928H5.16976L6.01445 8.3431H7.98572L8.83041 2.42928H11.6513L9.18721 12.2856H11.2196L13.87 1.68316C13.9064 1.53782 13.9092 1.38611 13.8781 1.23953C13.8471 1.09296 13.7831 0.955385 13.6909 0.837271C13.5987 0.719157 13.4808 0.62361 13.3462 0.557892C13.2116 0.492174 13.0637 0.458015 12.9139 0.458011H1.08627C0.936317 0.457629 0.788265 0.491534 0.653426 0.557135C0.518587 0.622735 0.400531 0.718294 0.30828 0.836509C0.216028 0.954724 0.152025 1.09246 0.12116 1.2392C0.090296 1.38594 0.0933879 1.5378 0.1302 1.68316L2.78057 12.2856Z" fill="#0E772A"/>
<path d="M7.00024 10.3145L8.68962 14.5389H12.9141L9.25932 17.6239L11.2237 22.1421L7.00024 19.3478L2.77581 22.1421L4.74116 17.6239L1.08643 14.5389H5.30988L7.00024 10.3145Z" fill="#0E772A"/>
</svg>
