<svg width="19" height="17" viewBox="0 0 19 17" fill="none" xmlns="http://www.w3.org/2000/svg">
<path d="M16.55 4.08882H14.6289C14.7258 3.82521 14.7875 3.5361 14.7875 3.23849C14.7875 1.82694 13.6066 0.6875 12.1438 0.6875C11.2184 0.6875 10.4165 1.14668 9.94063 1.83544L9.5 2.40516L9.05937 1.82694C8.5835 1.14668 7.78156 0.6875 6.85625 0.6875C5.39337 0.6875 4.2125 1.82694 4.2125 3.23849C4.2125 3.5361 4.27419 3.82521 4.37112 4.08882H2.45C1.47181 4.08882 0.696312 4.84561 0.696312 5.78947L0.6875 15.1431C0.6875 16.087 1.47181 16.8438 2.45 16.8438H16.55C17.5282 16.8438 18.3125 16.087 18.3125 15.1431V5.78947C18.3125 4.84561 17.5282 4.08882 16.55 4.08882ZM12.1438 2.38816C12.6284 2.38816 13.025 2.77081 13.025 3.23849C13.025 3.70617 12.6284 4.08882 12.1438 4.08882C11.6591 4.08882 11.2625 3.70617 11.2625 3.23849C11.2625 2.77081 11.6591 2.38816 12.1438 2.38816ZM6.85625 2.38816C7.34094 2.38816 7.7375 2.77081 7.7375 3.23849C7.7375 3.70617 7.34094 4.08882 6.85625 4.08882C6.37156 4.08882 5.975 3.70617 5.975 3.23849C5.975 2.77081 6.37156 2.38816 6.85625 2.38816ZM16.55 15.1431H2.45V13.4424H16.55V15.1431ZM16.55 10.8914H2.45V6.6398C2.45 6.17212 2.84656 5.78947 3.33125 5.78947H6.92675L5.6225 7.50714C5.33169 7.88979 5.41981 8.42549 5.81638 8.6976C6.20413 8.9697 6.75931 8.88467 7.04131 8.51053L9.5 5.27928L11.9587 8.51053C12.2407 8.88467 12.7959 8.9697 13.1836 8.6976C13.5802 8.42549 13.6683 7.88979 13.3775 7.50714L12.0733 5.78947H15.6688C16.1534 5.78947 16.55 6.17212 16.55 6.6398V10.8914Z" fill="#0E772A"/>
</svg>
